<svg width="134" height="40" viewBox="0 0 134 40" fill="none" xmlns="http://www.w3.org/2000/svg">
<g clipPath="url(#clip0_4328_691)">
<path d="M133.111 35.2896C133.111 35.7899 133.012 36.2853 132.821 36.7475C132.63 37.2097 132.349 37.6295 131.995 37.9831C131.642 38.3367 131.222 38.6171 130.76 38.8082C130.298 38.9993 129.803 39.0974 129.303 39.0968H4.69641C3.68647 39.0979 2.71745 38.6974 2.00248 37.9834C1.2875 37.2695 0.885105 36.3005 0.883789 35.2896V4.92795C0.885105 3.9166 1.28734 2.94711 2.00217 2.23235C2.71701 1.51759 3.68601 1.11599 4.69641 1.11572H129.302C129.802 1.11572 130.298 1.21434 130.76 1.40593C131.222 1.59753 131.641 1.87835 131.995 2.23236C132.349 2.58637 132.629 3.00663 132.82 3.46915C133.012 3.93166 133.11 4.42737 133.11 4.92795L133.111 35.2896Z" fill="white"/>
<path d="M129.303 39.9825H4.69651C3.45237 39.9822 2.25915 39.488 1.37867 38.6082C0.498189 37.7283 0.00236725 36.5348 0 35.2895L0 4.92889C0.00184052 3.68297 0.497335 2.48865 1.37779 1.60793C2.25824 0.727211 3.45175 0.232009 4.69651 0.230957L129.302 0.230957C130.547 0.232533 131.74 0.727905 132.621 1.60851C133.501 2.48912 133.997 3.68313 133.999 4.92889V35.2895C134.001 37.8781 131.89 39.9825 129.303 39.9825Z" fill="#A6A6A6"/>
<path d="M133.111 35.2896C133.111 35.7899 133.012 36.2853 132.821 36.7475C132.63 37.2097 132.349 37.6295 131.995 37.9831C131.642 38.3367 131.222 38.6171 130.76 38.8082C130.298 38.9993 129.803 39.0974 129.303 39.0968H4.69641C3.68647 39.0979 2.71745 38.6974 2.00248 37.9834C1.2875 37.2695 0.885105 36.3005 0.883789 35.2896V4.92795C0.885105 3.9166 1.28734 2.94711 2.00217 2.23235C2.71701 1.51759 3.68601 1.11599 4.69641 1.11572H129.302C129.802 1.11572 130.298 1.21434 130.76 1.40593C131.222 1.59753 131.641 1.87835 131.995 2.23236C132.349 2.58637 132.629 3.00663 132.82 3.46915C133.012 3.93166 133.11 4.42737 133.11 4.92795L133.111 35.2896Z" fill="black"/>
<path d="M29.9211 19.8976C29.8923 16.6937 32.5419 15.135 32.6631 15.0625C31.1625 12.8725 28.8366 12.5733 28.0192 12.5495C26.0657 12.3437 24.1709 13.7195 23.1757 13.7195C22.1608 13.7195 20.6284 12.5693 18.9768 12.6031C16.8515 12.6359 14.8633 13.8676 13.7728 15.7802C11.5224 19.6799 13.2008 25.4106 15.3568 28.5628C16.4354 30.1076 17.6957 31.8303 19.3452 31.7697C20.9591 31.704 21.5619 30.7408 23.5094 30.7408C25.4391 30.7408 26.0052 31.7697 27.6875 31.7309C29.4195 31.704 30.51 30.1802 31.5508 28.6225C32.7972 26.854 33.2977 25.1104 33.3176 25.021C33.2778 25.0071 29.9548 23.7366 29.9211 19.8976ZM26.7431 10.4759C27.6111 9.38934 28.2049 7.91117 28.0401 6.41113C26.7838 6.4668 25.2127 7.28094 24.3079 8.34359C23.5074 9.28 22.7924 10.8148 22.9771 12.2582C24.3884 12.3636 25.8373 11.5455 26.7431 10.4759Z" fill="white"/>
<path d="M129.303 0.230957H62.5601L88.7022 39.9825H129.303C130.548 39.9815 131.741 39.4865 132.621 38.6062C133.502 37.7259 133.997 36.5321 134 35.2866V4.92889C133.998 3.68305 133.502 2.48889 132.622 1.60822C131.741 0.727558 130.548 0.232271 129.303 0.230957V0.230957Z" fill="url(#paint0_linear_4328_691)"/>
<path d="M53.2965 31.5479H51.0411L49.8056 27.6621H45.5113L44.3345 31.5479H42.1387L46.3942 18.3189H49.022L53.2965 31.5479ZM49.4332 26.0318L48.3159 22.5774C48.1978 22.2245 47.9753 21.3935 47.6495 20.0853H47.6098C47.4787 20.648 47.2692 21.479 46.9822 22.5774L45.8838 26.0318H49.4332ZM64.2189 26.661C64.2189 28.2834 63.7789 29.5657 62.898 30.5071C62.1095 31.3451 61.1293 31.7636 59.9604 31.7636C58.6981 31.7636 57.7904 31.3133 57.2392 30.4106V35.4158H55.1218V25.1441C55.1218 24.1252 55.095 23.0804 55.0434 22.0088H56.9055L57.0237 23.5208H57.0634C57.7695 22.3816 58.8411 21.812 60.2792 21.812C61.4034 21.812 62.3419 22.2564 63.0927 23.146C63.8425 24.0377 64.2189 25.2087 64.2189 26.661ZM62.0618 26.7386C62.0618 25.8101 61.8533 25.0447 61.4342 24.4413C60.9763 23.8141 60.3616 23.4999 59.5909 23.4999C59.0685 23.4999 58.5938 23.6749 58.1698 24.0198C57.7447 24.3677 57.4666 24.822 57.3365 25.3847C57.2784 25.5951 57.2454 25.8116 57.2382 26.0298V27.6213C57.2382 28.3142 57.4507 28.8997 57.8758 29.3788C58.3008 29.856 58.853 30.0955 59.5323 30.0955C60.3298 30.0955 60.9505 29.7864 61.3944 29.173C61.8394 28.5577 62.0618 27.7466 62.0618 26.7386ZM75.1801 26.661C75.1801 28.2834 74.7401 29.5657 73.8592 30.5071C73.0697 31.3451 72.0904 31.7636 70.9205 31.7636C69.6583 31.7636 68.7505 31.3133 68.1994 30.4106V35.4158H66.082V25.1441C66.082 24.1252 66.0552 23.0804 66.0035 22.0088H67.8657L67.9839 23.5208H68.0236C68.7287 22.3816 69.8003 21.812 71.2393 21.812C72.3626 21.812 73.3011 22.2564 74.0539 23.146C74.8027 24.0377 75.1801 25.2087 75.1801 26.661ZM73.022 26.7386C73.022 25.8101 72.8124 25.0447 72.3933 24.4413C71.9355 23.8141 71.3227 23.4999 70.5521 23.4999C70.0297 23.4999 69.555 23.6749 69.1289 24.0198C68.7039 24.3677 68.4268 24.822 68.2967 25.3847C68.2321 25.6471 68.1974 25.8608 68.1974 26.0298V27.6213C68.1974 28.3142 68.4109 28.8997 68.834 29.3788C69.259 29.855 69.8112 30.0955 70.4925 30.0955C71.291 30.0955 71.9117 29.7864 72.3546 29.173C72.7995 28.5577 73.022 27.7466 73.022 26.7386ZM87.4353 27.837C87.4353 28.9633 87.042 29.8788 86.2604 30.5856C85.4003 31.357 84.1997 31.7437 82.6603 31.7437C81.2381 31.7437 80.098 31.4693 79.238 30.9196L79.7276 29.1532C80.6562 29.7039 81.6761 29.9782 82.7864 29.9782C83.5849 29.9782 84.2056 29.7973 84.6485 29.4385C85.0925 29.0786 85.3169 28.5975 85.3169 27.9971C85.3169 27.4593 85.1312 27.009 84.7667 26.6422C84.4003 26.2763 83.7945 25.9354 82.9433 25.6223C80.6294 24.7584 79.4714 23.495 79.4714 21.8329C79.4714 20.7474 79.8805 19.8587 80.6969 19.1638C81.5132 18.47 82.5958 18.123 83.9424 18.123C85.1451 18.123 86.1472 18.3328 86.9427 18.7513L86.4114 20.479C85.6625 20.0734 84.8174 19.8706 83.8719 19.8706C83.1251 19.8706 82.5391 20.0545 82.12 20.4203C81.7675 20.7474 81.5887 21.146 81.5887 21.6192C81.5887 22.141 81.7923 22.5745 82.1975 22.9144C82.5491 23.2276 83.1906 23.5685 84.1182 23.9343C85.2563 24.3936 86.0926 24.9284 86.6278 25.5427C87.1671 26.1571 87.4353 26.9235 87.4353 27.837ZM94.4537 23.5993H92.1199V28.2307C92.1199 29.4086 92.531 29.9961 93.3553 29.9961C93.7337 29.9961 94.0475 29.9643 94.2958 29.8977L94.3544 31.5071C93.9373 31.6632 93.3881 31.7417 92.7078 31.7417C91.8716 31.7417 91.2181 31.4862 90.7464 30.9753C90.2766 30.4643 90.0402 29.6084 90.0402 28.4036V23.5954H88.6499V22.0049H90.0402V20.2583L92.1199 19.63V22.0049H94.4537V23.5993ZM104.963 26.6998C104.963 28.1661 104.544 29.3699 103.708 30.3112C102.833 31.2805 101.669 31.7636 100.218 31.7636C98.8175 31.7636 97.7042 31.2993 96.874 30.3719C96.0437 29.4424 95.6286 28.2714 95.6286 26.8589C95.6286 25.3807 96.0576 24.1699 96.9127 23.2285C97.7698 22.2862 98.9238 21.815 100.375 21.815C101.773 21.815 102.896 22.2802 103.746 23.2087C104.559 24.1093 104.963 25.2723 104.963 26.6998ZM102.768 26.7485C102.768 25.8747 102.579 25.1252 102.201 24.498C101.757 23.7405 101.122 23.3618 100.298 23.3618C99.4501 23.3618 98.7996 23.7405 98.3567 24.498C97.9773 25.1252 97.7886 25.8877 97.7886 26.7883C97.7886 27.6631 97.9773 28.4146 98.3567 29.0398C98.8145 29.7973 99.4531 30.1761 100.28 30.1761C101.09 30.1761 101.724 29.7894 102.183 29.021C102.573 28.3788 102.768 27.6243 102.768 26.7485ZM111.848 23.8727C111.628 23.8329 111.405 23.8133 111.181 23.8141C110.436 23.8141 109.86 24.0944 109.455 24.659C109.103 25.156 108.927 25.7843 108.927 26.5428V31.5479H106.809V25.0129C106.811 24.0115 106.791 23.0103 106.748 22.0098H108.592L108.669 23.8349H108.728C108.952 23.2077 109.304 22.7017 109.787 22.323C110.228 21.992 110.765 21.8128 111.317 21.812C111.513 21.812 111.689 21.8259 111.846 21.8508L111.848 23.8727ZM121.318 26.327C121.323 26.6492 121.297 26.9712 121.24 27.2883H114.888C114.912 28.2307 115.22 28.9524 115.81 29.4494C116.345 29.8927 117.037 30.1154 117.888 30.1154C118.828 30.1154 119.686 29.9663 120.458 29.6651L120.789 31.1353C119.888 31.529 118.823 31.7248 117.595 31.7248C116.117 31.7248 114.957 31.2894 114.113 30.4206C113.271 29.5508 112.848 28.3818 112.848 26.9175C112.848 25.4801 113.241 24.2823 114.026 23.327C114.849 22.3071 115.96 21.7971 117.358 21.7971C118.732 21.7971 119.772 22.3071 120.478 23.327C121.037 24.1351 121.318 25.1371 121.318 26.327ZM119.299 25.7773C119.314 25.1481 119.175 24.6063 118.888 24.1481C118.521 23.5576 117.957 23.2633 117.201 23.2633C116.509 23.2633 115.945 23.5506 115.516 24.1272C115.163 24.5854 114.954 25.1362 114.889 25.7753L119.299 25.7773Z" fill="white"/>
<path d="M44.9004 13.6419C44.3115 13.6419 43.802 13.6131 43.3779 13.5644V7.16859C43.971 7.07688 44.5704 7.03168 45.1705 7.0334C47.5987 7.0334 48.717 8.22925 48.717 10.1786C48.717 12.4272 47.3961 13.6419 44.9004 13.6419ZM45.2559 7.8535C44.9282 7.8535 44.6491 7.87338 44.4177 7.92109V12.7831C44.5429 12.8029 44.7832 12.8119 45.1209 12.8119C46.7119 12.8119 47.6176 11.9053 47.6176 10.2074C47.6176 8.69348 46.7983 7.8535 45.2559 7.8535ZM52.2019 13.6906C50.8333 13.6906 49.9465 12.6677 49.9465 11.279C49.9465 9.83168 50.8522 8.79984 52.2793 8.79984C53.628 8.79984 54.5347 9.77402 54.5347 11.2025C54.5347 12.6677 53.6002 13.6906 52.2019 13.6906ZM52.2416 9.5613C51.4898 9.5613 51.0081 10.2651 51.0081 11.2492C51.0081 12.2144 51.4997 12.9182 52.2317 12.9182C52.9636 12.9182 53.4552 12.1657 53.4552 11.2293C53.4552 10.275 52.9735 9.5613 52.2416 9.5613ZM62.3387 8.89627L60.8739 13.5843H59.9195L59.3127 11.5484C59.1618 11.0504 59.0362 10.5451 58.9363 10.0345H58.9164C58.8399 10.5454 58.695 11.0574 58.541 11.5484L57.8955 13.5843H56.9312L55.5527 8.89627H56.6223L57.1526 11.125C57.2778 11.6558 57.383 12.1568 57.4704 12.63H57.4903C57.5668 12.2353 57.6919 11.7423 57.8756 11.1349L58.541 8.89726H59.3891L60.0257 11.0872C60.1797 11.618 60.3048 12.1389 60.4021 12.631H60.4299C60.4975 12.1488 60.6037 11.6369 60.7477 11.0872L61.3168 8.89726L62.3387 8.89627ZM67.7314 13.5843H66.6906V10.8923C66.6906 10.0633 66.3728 9.64778 65.7462 9.64778C65.1294 9.64778 64.7054 10.1786 64.7054 10.7959V13.5843H63.6646V10.2363C63.6646 9.82174 63.6546 9.37739 63.6258 8.89527H64.5415L64.5902 9.61895H64.619C64.899 9.11794 65.4671 8.79984 66.1037 8.79984C67.0869 8.79984 67.7324 9.55235 67.7324 10.777L67.7314 13.5843ZM70.6016 13.5843H69.5598V6.74512H70.6016V13.5843ZM74.3963 13.6906C73.0288 13.6906 72.1409 12.6677 72.1409 11.279C72.1409 9.83168 73.0467 8.79984 74.4728 8.79984C75.8224 8.79984 76.7282 9.77402 76.7282 11.2025C76.7292 12.6677 75.7936 13.6906 74.3963 13.6906ZM74.435 9.5613C73.6832 9.5613 73.2016 10.2651 73.2016 11.2492C73.2016 12.2144 73.6942 12.9182 74.4241 12.9182C75.1571 12.9182 75.6477 12.1657 75.6477 11.2293C75.6486 10.275 75.168 9.5613 74.435 9.5613ZM80.8318 13.5843L80.7563 13.0445H80.7285C80.4107 13.4789 79.9469 13.6906 79.359 13.6906C78.5198 13.6906 77.9239 13.1021 77.9239 12.3109C77.9239 11.1538 78.926 10.5554 80.661 10.5554V10.4689C80.661 9.85156 80.3342 9.54241 79.6887 9.54241C79.2269 9.54241 78.8217 9.65871 78.4652 9.89033L78.2536 9.20542C78.6866 8.93504 79.2269 8.79984 79.8615 8.79984C81.085 8.79984 81.7028 9.44598 81.7028 10.7393V12.4659C81.7028 12.9391 81.7236 13.3059 81.7703 13.5853L80.8318 13.5843ZM80.6888 11.2492C79.5328 11.2492 78.9528 11.5295 78.9528 12.1946C78.9528 12.6866 79.2517 12.9272 79.6669 12.9272C80.1962 12.9272 80.6888 12.5226 80.6888 11.9729V11.2492ZM86.7568 13.5843L86.7081 12.8318H86.6793C86.3804 13.4004 85.8779 13.6906 85.1757 13.6906C84.0465 13.6906 83.2103 12.6966 83.2103 11.2979C83.2103 9.83168 84.0773 8.79885 85.2611 8.79885C85.8878 8.79885 86.3317 9.01059 86.582 9.43604H86.6029V6.74512H87.6446V12.3208C87.6446 12.7741 87.6556 13.1986 87.6834 13.5843H86.7568ZM86.6029 10.8257C86.6029 10.1697 86.1689 9.61 85.5064 9.61C84.7348 9.61 84.263 10.2949 84.263 11.2592C84.263 12.2045 84.7527 12.8516 85.4856 12.8516C86.1401 12.8516 86.6029 12.282 86.6029 11.6071V10.8257ZM94.2499 13.6906C92.8824 13.6906 91.9955 12.6677 91.9955 11.279C91.9955 9.83168 92.9013 8.79984 94.3274 8.79984C95.6771 8.79984 96.5828 9.77402 96.5828 11.2025C96.5838 12.6677 95.6493 13.6906 94.2499 13.6906ZM94.2887 9.5613C93.5379 9.5613 93.0562 10.2651 93.0562 11.2492C93.0562 12.2144 93.5478 12.9182 94.2787 12.9182C95.0117 12.9182 95.5023 12.1657 95.5023 11.2293C95.5043 10.275 95.0226 9.5613 94.2887 9.5613ZM102.18 13.5843H101.138V10.8923C101.138 10.0633 100.82 9.64778 100.194 9.64778C99.5771 9.64778 99.154 10.1786 99.154 10.7959V13.5843H98.1122V10.2363C98.1122 9.82174 98.1023 9.37739 98.0735 8.89527H98.9892L99.0378 9.61895H99.0666C99.3457 9.11794 99.9148 8.79885 100.55 8.79885C101.534 8.79885 102.18 9.55135 102.18 10.776V13.5843ZM109.183 9.6776H108.038V11.954C108.038 12.5335 108.238 12.8228 108.643 12.8228C108.827 12.8228 108.981 12.8029 109.105 12.7741L109.134 13.5654C108.932 13.6429 108.662 13.6817 108.327 13.6817C107.506 13.6817 107.016 13.2284 107.016 12.0415V9.6776H106.332V8.89627H107.016V8.0374L108.038 7.72824V8.89527H109.183V9.6776ZM114.693 13.5843H113.653V10.9122C113.653 10.0732 113.336 9.64877 112.708 9.64877C112.169 9.64877 111.666 10.0156 111.666 10.7581V13.5843H110.627V6.74512H111.666V9.5613H111.687C112.015 9.05035 112.49 8.79885 113.096 8.79885C114.087 8.79885 114.693 9.57024 114.693 10.7959V13.5843ZM120.337 11.4908H117.214C117.234 12.3785 117.821 12.8795 118.69 12.8795C119.152 12.8795 119.577 12.8019 119.952 12.6578L120.114 13.3815C119.671 13.5743 119.15 13.6707 118.543 13.6707C117.078 13.6707 116.211 12.7443 116.211 11.3079C116.211 9.87045 117.099 8.7899 118.426 8.7899C119.622 8.7899 120.373 9.6776 120.373 11.0186C120.38 11.1768 120.368 11.3353 120.337 11.4908ZM119.383 10.7482C119.383 10.0245 119.019 9.51358 118.353 9.51358C117.755 9.51358 117.283 10.0345 117.215 10.7482H119.383Z" fill="white"/>
</g>
<defs>
<linearGradient id="paint0_linear_4328_691" x1="98.2788" y1="40.088" x2="98.2788" y2="-103.275" gradientUnits="userSpaceOnUse">
<stop stop-color="#1A1A1A" stop-opacity="0.1"/>
<stop offset="0.123" stop-color="#212121" stop-opacity="0.151"/>
<stop offset="0.308" stop-color="#353535" stop-opacity="0.227"/>
<stop offset="0.532" stop-color="#575757" stop-opacity="0.318"/>
<stop offset="0.783" stop-color="#858585" stop-opacity="0.421"/>
<stop offset="1" stop-color="#B3B3B3" stop-opacity="0.51"/>
</linearGradient>
<clipPath id="clip0_4328_691">
<rect width="134" height="40" fill="white"/>
</clipPath>
</defs>
</svg>
