<svg width="136" height="40" viewBox="0 0 136 40" fill="none" xmlns="http://www.w3.org/2000/svg">
<g clipPath="url(#clip0_4328_271)">
<path fill-rule="evenodd" clip-rule="evenodd" d="M130.961 40H5.03889C2.26175 40 0 37.7456 0 35V5C0 2.24439 2.26175 0 5.03889 0H130.961C133.736 0 136 2.24439 136 5V35C136 37.7456 133.736 40 130.961 40Z" fill="black"/>
<path fill-rule="evenodd" clip-rule="evenodd" d="M130.961 0.800499C133.29 0.800499 135.197 2.68828 135.197 5V35C135.197 37.3117 133.303 39.1995 130.961 39.1995H5.03889C2.70959 39.1995 0.80312 37.3117 0.80312 35V5C0.80312 2.68828 2.69708 0.800499 5.03889 0.800499H130.961ZM130.961 0H5.03889C2.26175 0 0 2.25436 0 5V35C0 37.7556 2.26175 40 5.03889 40H130.961C133.736 40 136 37.7556 136 35V5C136 2.25436 133.736 0 130.961 0Z" fill="#A6A6A6"/>
<path d="M71.6455 13.232C70.7373 13.232 69.9717 12.9153 69.3662 12.2918C68.7658 11.6858 68.4305 10.8504 68.4455 9.99755C68.4455 9.08732 68.7558 8.31675 69.3662 7.70577C69.9692 7.08233 70.7348 6.76562 71.643 6.76562C72.5412 6.76562 73.3068 7.08233 73.9223 7.70577C74.5327 8.3367 74.843 9.10727 74.843 9.99755C74.833 10.9103 74.5227 11.6808 73.9223 12.2893C73.3193 12.9177 72.5537 13.232 71.6455 13.232ZM44.6221 13.232C43.734 13.232 42.9634 12.9202 42.3329 12.3043C41.7074 11.6908 41.3896 10.9153 41.3896 10C41.3896 9.08483 41.7074 8.30927 42.3329 7.6958C42.9509 7.07984 43.7214 6.76812 44.6221 6.76812C45.0625 6.76812 45.4903 6.8554 45.9006 7.03246C46.3034 7.20453 46.6312 7.43894 46.8739 7.72572L46.9339 7.79804L46.2559 8.46139L46.1859 8.37909C45.8031 7.92523 45.2902 7.70328 44.6121 7.70328C44.0067 7.70328 43.4788 7.91774 43.0434 8.34169C42.6056 8.76812 42.3829 9.32672 42.3829 10.0025C42.3829 10.6783 42.6056 11.2369 43.0434 11.6634C43.4788 12.0873 44.0067 12.3018 44.6121 12.3018C45.2576 12.3018 45.8006 12.0873 46.2234 11.6634C46.4736 11.414 46.6287 11.0649 46.6837 10.6235H44.5096V9.69081H47.617L47.6295 9.7756C47.652 9.93271 47.6745 10.0948 47.6745 10.2444C47.6745 11.1048 47.4143 11.8005 46.8989 12.3143C46.3134 12.9227 45.5479 13.232 44.6221 13.232ZM80.5524 13.0998H79.5941L76.6594 8.41899L76.6844 9.26188V13.0973H75.7262V6.90029H76.8195L76.8495 6.94767L79.6092 11.3566L79.5841 10.5162V6.90029H80.5524V13.0998ZM64.445 13.0998H63.4742V7.83296H61.7904V6.90029H66.1262V7.83296H64.4424V13.0998H64.445ZM60.9998 13.0998H60.0315V6.90029H60.9998V13.0998ZM55.5581 13.0998H54.5898V7.83296H52.906V6.90029H57.2419V7.83296H55.5581V13.0998ZM52.2931 13.0898H48.5802V6.90029H52.2931V7.83296H49.5509V9.5337H52.0254V10.4564H49.5509V12.1571H52.2931V13.0898ZM70.0768 11.6509C70.5096 12.0823 71.035 12.2993 71.6455 12.2993C72.2735 12.2993 72.7864 12.0873 73.2142 11.6509C73.6395 11.227 73.8547 10.6709 73.8547 10C73.8547 9.32922 73.6395 8.77061 73.2167 8.34917C72.7839 7.91774 72.256 7.70079 71.648 7.70079C71.02 7.70079 70.5071 7.91276 70.0818 8.34917C69.6565 8.77311 69.4413 9.32922 69.4413 10C69.4413 10.6709 69.654 11.2295 70.0768 11.6509Z" fill="white"/>
<path fill-rule="evenodd" clip-rule="evenodd" d="M68.3552 21.7554C65.9909 21.7554 64.0744 23.5434 64.0744 26.0098C64.0744 28.4537 66.0034 30.2641 68.3552 30.2641C70.7195 30.2641 72.636 28.4636 72.636 26.0098C72.636 23.5434 70.7195 21.7554 68.3552 21.7554ZM68.3552 28.5784C67.0617 28.5784 65.9483 27.511 65.9483 25.9998C65.9483 24.4661 67.0642 23.4213 68.3552 23.4213C69.6487 23.4213 70.762 24.4661 70.762 25.9998C70.7645 27.521 69.6487 28.5784 68.3552 28.5784ZM59.0155 21.7554C56.6512 21.7554 54.7347 23.5434 54.7347 26.0098C54.7347 28.4537 56.6637 30.2641 59.0155 30.2641C61.3798 30.2641 63.2963 28.4636 63.2963 26.0098C63.2963 23.5434 61.3773 21.7554 59.0155 21.7554ZM59.0155 28.5784C57.722 28.5784 56.6086 27.511 56.6086 25.9998C56.6086 24.4661 57.7245 23.4213 59.0155 23.4213C60.309 23.4213 61.4223 24.4661 61.4223 25.9998C61.4223 27.521 60.309 28.5784 59.0155 28.5784ZM47.9019 23.0547V24.8552H52.2377C52.1051 25.8651 51.7699 26.6108 51.257 27.122C50.6215 27.7554 49.6407 28.4437 47.9119 28.4437C45.2473 28.4437 43.1632 26.2991 43.1632 23.6432C43.1632 20.9873 45.2473 18.8427 47.9119 18.8427C49.3505 18.8427 50.3988 19.4088 51.1769 20.132L52.4579 18.8552C51.3771 17.8227 49.9385 17.0322 47.9219 17.0322C44.2666 17.0322 41.1992 19.9998 41.1992 23.6332C41.1992 27.2766 44.2641 30.2342 47.9219 30.2342C49.8959 30.2342 51.3771 29.5908 52.548 28.3789C53.7414 27.1893 54.1192 25.511 54.1192 24.1569C54.1192 23.7355 54.0867 23.3564 54.0191 23.0347H47.8994C47.9019 23.0322 47.9019 23.0547 47.9019 23.0547ZM93.3595 24.4562C93.0017 23.5011 91.9209 21.7454 89.7042 21.7454C87.5075 21.7454 85.6811 23.4686 85.6811 25.9998C85.6811 28.3888 87.4875 30.2542 89.9168 30.2542C91.8683 30.2542 93.0042 29.0646 93.4721 28.3664L92.0235 27.3988C91.5431 28.1095 90.8751 28.5759 89.9268 28.5759C88.9686 28.5759 88.2981 28.142 87.8527 27.2866L93.5596 24.93C93.5596 24.9325 93.3595 24.4562 93.3595 24.4562ZM87.54 25.8776C87.495 24.2342 88.821 23.3988 89.7692 23.3988C90.5173 23.3988 91.1403 23.7654 91.3529 24.2991L87.54 25.8776ZM82.9039 29.9998H84.7779V17.5011H82.9039V29.9998ZM79.8265 22.7006H79.759C79.3362 22.1993 78.533 21.7454 77.5073 21.7454C75.3781 21.7454 73.4166 23.6133 73.4166 26.0123C73.4166 28.4013 75.3681 30.2467 77.5073 30.2467C78.5205 30.2467 79.3362 29.7903 79.759 29.2791H79.8265V29.8901C79.8265 31.5135 78.9559 32.3888 77.5523 32.3888C76.4039 32.3888 75.6908 31.5659 75.4006 30.8776L73.7719 31.5559C74.2397 32.6781 75.4882 34.0671 77.5498 34.0671C79.7465 34.0671 81.6079 32.7779 81.6079 29.6332V21.9998H79.8366V22.7006C79.8391 22.7006 79.8265 22.7006 79.8265 22.7006ZM77.6749 28.5784C76.3814 28.5784 75.3005 27.5011 75.3005 26.0123C75.3005 24.511 76.3814 23.4237 77.6749 23.4237C78.9559 23.4237 79.9491 24.5235 79.9491 26.0123C79.9617 27.5011 78.9584 28.5784 77.6749 28.5784ZM102.134 17.5011H97.6528V29.9998H99.5268V25.2666H102.136C104.21 25.2666 106.249 23.7679 106.249 21.3888C106.249 19.0098 104.218 17.5011 102.134 17.5011ZM102.189 23.521H99.5243V19.2317H102.189C103.592 19.2317 104.386 20.3863 104.386 21.3764C104.386 22.3564 103.582 23.521 102.189 23.521ZM113.76 21.733C112.399 21.733 110.996 22.334 110.415 23.6432L112.076 24.3315C112.434 23.6432 113.09 23.4088 113.783 23.4088C114.754 23.4088 115.734 23.9873 115.757 25.0198V25.1519C115.422 24.9624 114.686 24.6731 113.805 24.6731C112.011 24.6731 110.192 25.6507 110.192 27.4836C110.192 29.1619 111.664 30.2392 113.302 30.2392C114.561 30.2392 115.254 29.6731 115.687 29.0173H115.754V29.9848H117.561V25.1968C117.561 22.9674 115.899 21.733 113.76 21.733ZM113.525 28.5784C112.912 28.5784 112.054 28.2791 112.054 27.511C112.054 26.5434 113.125 26.1769 114.038 26.1769C114.864 26.1769 115.254 26.3539 115.744 26.5983C115.609 27.7205 114.658 28.5684 113.525 28.5784ZM124.151 21.9998L121.999 27.4213H121.932L119.702 21.9998H117.686L121.031 29.5784L119.124 33.7903H121.076L126.222 21.9998H124.151ZM107.283 29.9998H109.157V17.5011H107.283V29.9998Z" fill="white"/>
<path fill-rule="evenodd" clip-rule="evenodd" d="M10.4681 7.53364C10.1779 7.84536 10.0103 8.32167 10.0103 8.94511V31.0573C10.0103 31.6808 10.1779 32.1571 10.4781 32.4563L10.5557 32.5237L22.9853 20.1346V19.8578L10.5457 7.46631L10.4681 7.53364Z" fill="url(#paint0_linear_4328_271)"/>
<path fill-rule="evenodd" clip-rule="evenodd" d="M27.1208 24.2768L22.9751 20.1446V19.8553L27.1208 15.7231L27.2109 15.778L32.1147 18.5561C33.5182 19.3441 33.5182 20.6458 32.1147 21.4438L27.2109 24.2219L27.1208 24.2768Z" fill="url(#paint1_linear_4328_271)"/>
<path fill-rule="evenodd" clip-rule="evenodd" d="M27.2112 24.2219L22.9754 20L10.4683 32.4663C10.9261 32.9551 11.6942 33.01 12.5524 32.5337L27.2112 24.2219Z" fill="url(#paint2_linear_4328_271)"/>
<path fill-rule="evenodd" clip-rule="evenodd" d="M27.2112 15.7779L12.5524 7.47869C11.6942 6.98992 10.9236 7.05725 10.4683 7.54603L22.9754 19.9999L27.2112 15.7779Z" fill="url(#paint3_linear_4328_271)"/>
<path opacity="0.2" fill-rule="evenodd" clip-rule="evenodd" d="M27.1209 24.1323L12.5621 32.3767C11.749 32.843 11.0234 32.8106 10.5556 32.3867L10.478 32.464L10.5556 32.5313C11.0234 32.9528 11.749 32.9877 12.5621 32.5214L27.221 24.2221L27.1209 24.1323Z" fill="black"/>
<path opacity="0.12" fill-rule="evenodd" clip-rule="evenodd" d="M32.1148 21.2993L27.1084 24.1322L27.1985 24.2219L32.1023 21.4439C32.8053 21.0449 33.1506 20.5212 33.1506 20C33.108 20.4788 32.7503 20.9327 32.1148 21.2993Z" fill="black"/>
<path opacity="0.25" fill-rule="evenodd" clip-rule="evenodd" d="M12.5522 7.62329L32.1148 18.7006C32.7503 19.0572 33.1081 19.5235 33.1631 19.9999C33.1631 19.4787 32.8179 18.955 32.1148 18.556L12.5522 7.47866C11.1486 6.67816 10.0103 7.34649 10.0103 8.94499V9.08963C10.0103 7.48863 11.1486 6.83277 12.5522 7.62329Z" fill="white"/>
</g>
<defs>
<linearGradient id="paint0_linear_4328_271" x1="21.8704" y1="8.70654" x2="1.96894" y2="14.0267" gradientUnits="userSpaceOnUse">
<stop stop-color="#00A0FF"/>
<stop offset="0.00657" stop-color="#00A1FF"/>
<stop offset="0.2601" stop-color="#00BEFF"/>
<stop offset="0.5122" stop-color="#00D2FF"/>
<stop offset="0.7604" stop-color="#00DFFF"/>
<stop offset="1" stop-color="#00E3FF"/>
</linearGradient>
<linearGradient id="paint1_linear_4328_271" x1="33.9451" y1="20" x2="9.66895" y2="20" gradientUnits="userSpaceOnUse">
<stop stop-color="#FFE000"/>
<stop offset="0.4087" stop-color="#FFBD00"/>
<stop offset="0.7754" stop-color="#FFA500"/>
<stop offset="1" stop-color="#FF9C00"/>
</linearGradient>
<linearGradient id="paint2_linear_4328_271" x1="24.9079" y1="22.2973" x2="9.00136" y2="49.1571" gradientUnits="userSpaceOnUse">
<stop stop-color="#FF3A44"/>
<stop offset="1" stop-color="#C31162"/>
</linearGradient>
<linearGradient id="paint3_linear_4328_271" x1="7.31882" y1="0.178683" x2="14.4154" y2="12.1746" gradientUnits="userSpaceOnUse">
<stop stop-color="#32A071"/>
<stop offset="0.0685" stop-color="#2DA771"/>
<stop offset="0.4762" stop-color="#15CF74"/>
<stop offset="0.8009" stop-color="#06E775"/>
<stop offset="1" stop-color="#00F076"/>
</linearGradient>
<clipPath id="clip0_4328_271">
<rect width="136" height="40" fill="white"/>
</clipPath>
</defs>
</svg>
